<svg xmlns="http://www.w3.org/2000/svg" width="37.3" height="36.2" viewBox="0 0 37.3 36.2"><style type="text/css">.st0{fill:#4F260F;stroke:#4F260F;stroke-miterlimit:10;}</style><path class="st0" d="M29.4 15.6c.4 1.4.5 2.9.5 4.4v.5l1.7.7 1.4-1.2 1.1 1.3-2.1 1.9-2.3-.9c-.3 2.1-.9 4-1.7 5.6l.3-.4 1.7 1 1.6-1 .9 1.5-2.4 1.5-2.7-1.6c-2.1 3.3-5.3 5.5-8.9 5.5-3.6 0-6.8-2.1-8.9-5.4l-2.6 1.6-2.4-1.5.9-1.5 1.6 1 1.7-1h.2c-.8-1.6-1.3-3.4-1.6-5.3l-2.2.9-2.2-1.8 1.2-1.4 1.4 1.2 1.7-.7v-.6c0-1.5.2-3 .5-4.4h-2.8l-1.2-2.6 1.5-.8.8 1.7 2 .1v.6c1.2-3.6 3.5-6.4 6.3-7.8.1-1.1.9-2 2-2h4.7c1.1 0 2 .9 2 2.1v.1c2.7 1.5 4.8 4.3 5.9 7.8v-.8l2-.1.8-1.7 1.5.8-1.2 2.6-2.7.1zm-5.1-12.7l-.2.6-.3.2-.8.2-.6.4-.8.4v-.4l.9-.7.7-.3.7-.4.3-.7.7-.3-.2.7zm-9.7 1l-.7-.2-.3-.2-.3-.6-.3-.3-.2-.7.7.3.3.7.6.4.7.3 1 .7v.4l-.9-.4z"/></svg>